<?xml version="1.0" standalone="no"?>
<!DOCTYPE svg PUBLIC "-//W3C//DTD SVG 20010904//EN"
 "http://www.w3.org/TR/2001/REC-SVG-20010904/DTD/svg10.dtd">
<svg version="1.0" xmlns="http://www.w3.org/2000/svg"
 width="512.000000pt" height="512.000000pt" viewBox="0 0 512.000000 512.000000"
 preserveAspectRatio="xMidYMid meet">
<metadata>
Created by potrace 1.14, written by Peter Selinger 2001-2017
</metadata>
<g transform="translate(0.000000,512.000000) scale(0.100000,-0.100000)"
fill="#000000" stroke="none">
<path d="M3097 4438 c-18 -29 -42 -68 -53 -86 l-19 -33 44 -84 44 -84 46 0
c25 0 73 -2 106 -4 l60 -3 53 78 52 78 -44 89 c-51 100 -52 101 -182 101 l-73
0 -34 -52z"/>
<path d="M1268 4177 c-86 -29 -161 -56 -167 -62 -15 -16 -161 -304 -161 -318
0 -7 24 -87 53 -178 l53 -164 163 -83 162 -83 174 58 174 57 30 68 c16 37 25
68 20 68 -6 0 -7 5 -2 13 4 6 8 39 8 72 1 33 5 71 9 84 6 18 5 22 -5 15 -12
-6 -12 -5 -1 8 9 12 10 18 2 23 -8 5 -8 11 1 21 9 11 8 14 -2 14 -10 1 -8 4 4
11 13 8 15 14 7 29 -7 13 -6 22 4 32 11 11 11 16 -1 26 -16 15 -17 42 -2 42 5
0 7 -6 3 -12 -5 -10 -4 -10 5 -2 16 15 -4 68 -21 58 -10 -5 -10 -4 -1 6 13 14
1 66 -19 86 -21 19 -303 164 -319 163 -8 0 -85 -24 -171 -52z"/>
<path d="M3260 4123 c0 -4 124 -500 276 -1102 152 -603 277 -1099 278 -1104 0
-4 -28 -18 -64 -30 -280 -100 -499 -333 -580 -614 -22 -75 -26 -83 -49 -83
-32 0 -2505 271 -2509 275 -2 2 4 17 13 35 21 41 27 106 11 119 -9 8 -77 6
-227 -6 -118 -9 -215 -17 -217 -19 -6 -5 281 -423 288 -419 4 2 31 58 60 125
48 110 55 120 79 119 14 0 586 -62 1271 -137 l1244 -138 2 -124 c2 -259 81
-459 250 -639 119 -127 247 -204 434 -263 66 -20 95 -23 235 -23 179 0 250 15
392 80 126 58 297 196 333 268 7 15 17 27 22 27 4 0 8 5 8 10 0 6 9 19 20 30
11 11 17 26 14 35 -4 8 -1 15 5 15 6 0 8 7 5 15 -4 9 -1 15 7 15 8 0 -3 11
-24 25 -20 14 -37 33 -37 43 -1 15 -2 15 -15 -2 -13 -17 -17 -18 -28 -6 -7 7
-7 10 -1 7 14 -8 38 18 30 32 -4 5 -2 12 4 16 5 3 10 -1 10 -9 0 -9 4 -16 8
-16 5 0 8 -10 8 -22 -1 -14 5 -23 14 -23 8 0 21 -7 28 -15 10 -13 11 -12 6 4
-6 16 -5 17 17 7 22 -11 23 -11 6 3 -11 8 -27 13 -38 11 -17 -4 -23 8 -18 41
0 4 -5 10 -11 14 -8 5 -7 9 4 13 9 4 15 3 15 -1 -3 -21 2 -42 11 -42 5 0 9 3
9 8 -3 20 2 33 14 31 25 -3 34 1 34 17 0 15 -1 15 -13 0 -9 -13 -13 -14 -18
-4 -5 10 -7 10 -12 0 -6 -13 -24 -7 -24 9 0 6 5 7 10 4 6 -3 10 -2 10 3 0 12
-29 24 -41 16 -5 -3 -9 -10 -9 -15 0 -6 5 -7 10 -4 6 3 10 1 10 -4 0 -12 -35
-9 -47 4 -5 4 -2 5 6 0 10 -6 12 -2 7 13 -4 12 -2 23 5 28 8 4 9 3 5 -4 -4 -7
-3 -12 3 -12 5 0 13 5 16 10 4 6 11 7 17 4 6 -4 8 -3 5 3 -4 6 0 19 8 29 11
15 16 16 23 6 7 -10 11 -10 22 3 11 13 10 15 -3 9 -10 -3 -20 2 -27 16 -6 12
-17 19 -25 16 -7 -2 -15 4 -18 15 -6 24 -27 25 -27 2 0 -15 -2 -16 -10 -3 -13
21 -12 33 2 24 7 -5 9 -2 5 8 -3 9 0 21 6 27 14 14 30 15 22 1 -3 -6 -1 -10 5
-10 7 0 9 8 5 20 -5 16 -3 19 12 14 17 -7 17 -6 0 12 -17 18 -19 18 -31 2 -15
-20 -31 -25 -19 -5 4 6 8 18 9 25 2 11 0 11 -14 0 -13 -11 -15 -11 -9 4 3 10
2 18 -3 18 -6 0 -10 -7 -10 -16 0 -8 -5 -12 -10 -9 -6 4 -8 11 -5 16 4 5 0 9
-7 9 -10 0 -10 2 1 9 7 5 21 7 30 4 10 -2 24 4 32 13 9 11 9 15 2 10 -8 -4
-13 -1 -13 8 0 9 4 16 8 16 5 0 9 7 9 15 0 8 -4 12 -9 9 -4 -3 -8 -1 -8 4 0
17 13 22 29 10 10 -8 9 -5 -2 8 -18 19 -19 19 -38 -5 -11 -13 -22 -21 -26 -17
-3 3 -3 6 2 6 4 0 1 8 -6 18 -13 15 -12 16 3 4 14 -11 17 -10 22 6 5 13 15 19
33 18 16 -1 28 5 30 14 4 12 3 12 -5 1 -6 -9 -12 -10 -16 -3 -4 6 -13 9 -21 5
-8 -3 -15 0 -15 6 0 6 6 11 14 11 8 0 18 6 22 13 4 6 4 9 -1 5 -14 -13 -37 13
-24 28 8 10 5 12 -16 8 -21 -4 -26 -1 -22 10 4 10 0 14 -12 11 -12 -2 -18 3
-18 13 0 36 -3 41 -20 35 -14 -5 -15 -3 -6 7 7 7 17 9 25 4 22 -14 38 -13 38
2 0 8 -6 14 -14 14 -7 0 -19 7 -26 16 -12 13 -10 14 14 3 24 -11 29 -10 54 14
16 15 32 24 37 20 4 -5 5 -2 1 5 -6 11 -13 9 -30 -7 -23 -22 -42 -28 -31 -11
4 6 -7 8 -27 4 -31 -5 -32 -4 -14 10 10 8 23 13 28 10 10 -6 48 5 48 14 0 4
-18 7 -39 7 -22 1 -37 -3 -35 -7 7 -11 -30 3 -37 15 -11 15 2 47 19 47 13 0
13 -3 -2 -19 -13 -14 -14 -21 -5 -26 7 -5 20 2 31 16 11 14 18 17 15 8 -5 -14
-2 -15 18 -5 13 6 20 13 17 16 -24 17 -36 90 -13 76 4 -3 8 5 8 17 2 20 1 21
-11 4 -8 -9 -20 -16 -27 -14 -8 2 -11 2 -6 0 13 -8 7 -31 -9 -37 -9 -4 -19 -4
-22 -1 -3 3 0 5 7 5 7 0 10 12 8 35 -2 19 0 32 4 29 5 -3 9 -1 9 4 0 6 -7 13
-16 16 -8 3 -13 10 -9 15 3 5 0 13 -6 16 -5 4 -8 13 -5 21 6 16 -5 19 -20 4
-6 -6 -10 -2 -11 13 0 12 1 17 4 10 2 -7 10 -10 18 -7 7 3 16 0 20 -6 5 -8 78
59 206 186 170 170 199 203 199 229 0 27 -17 13 -212 -182 l-213 -212 -49 44
-50 44 54 113 c29 62 147 301 262 531 l209 418 -3 118 -3 117 -304 -616 c-167
-338 -306 -617 -307 -619 -2 -2 -40 13 -86 32 -140 59 -205 72 -363 69 -77 -1
-156 -3 -174 -4 l-35 -3 -271 1075 c-150 591 -275 1087 -279 1103 -5 23 -36
40 -36 20z m1348 -2418 c-3 -3 -9 2 -12 12 -6 14 -5 15 5 6 7 -7 10 -15 7 -18z
m49 -45 c1 -16 -1 -17 -12 -7 -11 10 -8 19 10 27 1 0 1 -9 2 -20z m7 -46 c3
-8 2 -12 -4 -9 -6 3 -10 10 -10 16 0 14 7 11 14 -7z m23 -6 c-3 -8 -6 -5 -6 6
-1 11 2 17 5 13 3 -3 4 -12 1 -19z m-27 -38 c0 -5 -2 -10 -4 -10 -3 0 -8 5
-11 10 -3 6 -1 10 4 10 6 0 11 -4 11 -10z m38 -60 c-1 -16 -6 -30 -11 -30 -5
0 -5 10 -2 21 5 14 2 25 -6 30 -11 7 -10 9 4 9 13 0 17 -7 15 -30z m68 -35 c1
-8 -2 -13 -6 -10 -5 3 -16 -5 -24 -17 -9 -12 -16 -17 -16 -11 0 7 5 15 10 18
8 5 7 12 -2 22 -11 14 -10 15 11 8 18 -5 22 -4 16 6 -5 8 -4 10 0 6 5 -4 10
-14 11 -22z m-92 -43 c2 -4 -4 -8 -14 -8 -10 0 -16 4 -14 8 3 4 9 8 14 8 5 0
11 -4 14 -8z m63 -206 c-3 -13 24 -15 43 -2 8 6 12 6 8 2 -4 -5 -3 -15 3 -23
9 -10 8 -13 -3 -13 -8 0 -18 3 -22 8 -4 4 -11 7 -14 8 -32 4 -56 31 -28 31 8
0 14 -5 13 -11z m13 -41 c0 -7 -30 -13 -34 -7 -3 4 4 9 15 9 10 1 19 0 19 -2z
m27 -20 c0 -8 -4 -12 -9 -9 -4 3 -8 1 -8 -5 0 -6 -7 -8 -16 -4 -14 5 -12 8 7
19 13 7 24 13 25 14 0 0 1 -7 1 -15z m-36 -84 c-6 -10 -8 -21 -5 -24 3 -3 -3
-3 -15 0 -20 5 -20 5 2 24 28 23 30 23 18 0z m49 -5 c0 -3 -4 -8 -10 -11 -5
-3 -10 -1 -10 4 0 6 5 11 10 11 6 0 10 -2 10 -4z m-90 -100 c0 -2 -7 -7 -16
-10 -8 -3 -12 -2 -9 4 6 10 25 14 25 6z m40 -40 c0 -3 -4 -8 -10 -11 -5 -3
-10 -1 -10 4 0 6 5 11 10 11 6 0 10 -2 10 -4z m102 -96 c11 0 18 -5 15 -12 -2
-7 -12 -12 -21 -12 -19 2 -22 -12 -3 -19 6 -3 2 -6 -10 -6 -17 -1 -21 3 -16
16 5 12 2 15 -10 10 -10 -4 -17 -2 -17 4 0 6 9 9 20 6 17 -4 20 -2 16 16 -3
12 -3 16 0 10 3 -7 15 -13 26 -13z m-68 -66 c3 -8 2 -12 -4 -9 -6 3 -10 10
-10 16 0 14 7 11 14 -7z m-23 -51 c13 -16 12 -17 -3 -4 -17 13 -22 21 -14 21
2 0 10 -8 17 -17z m59 -114 c0 -6 6 -7 13 -3 7 4 9 3 4 -2 -5 -5 -12 -9 -15
-9 -4 0 -13 -4 -21 -9 -9 -6 -12 -5 -7 2 3 6 2 13 -4 17 -5 3 -10 1 -10 -6 0
-7 -3 -10 -6 -6 -10 10 3 23 25 24 12 1 21 -3 21 -8z m0 -69 c0 -5 -5 -10 -11
-10 -5 0 -7 5 -4 10 3 6 8 10 11 10 2 0 4 -4 4 -10z m17 -12 c-3 -8 -6 -5 -6
6 -1 11 2 17 5 13 3 -3 4 -12 1 -19z"/>
<path d="M4420 3743 c-59 -53 -48 -153 21 -189 36 -18 72 -12 97 16 9 11 22
20 29 20 24 0 43 32 43 72 0 32 -7 47 -34 74 -29 29 -41 34 -80 34 -36 0 -52
-6 -76 -27z"/>
<path d="M1977 2376 c-139 -66 -208 -105 -232 -131 l-36 -36 29 -27 c43 -41
363 -274 368 -269 6 6 75 539 71 550 -1 4 -91 -35 -200 -87z"/>
<path d="M4720 1634 c0 -4 8 -13 18 -21 10 -8 11 -11 2 -7 -13 7 -13 5 -2 -9
8 -9 11 -21 7 -27 -3 -5 -2 -10 4 -10 29 0 22 53 -10 70 -10 6 -19 8 -19 4z"/>
<path d="M4820 1499 c0 -5 5 -7 10 -4 6 3 10 8 10 11 0 2 -4 4 -10 4 -5 0 -10
-5 -10 -11z"/>
<path d="M4815 1470 c-3 -6 1 -7 9 -4 18 7 21 14 7 14 -6 0 -13 -4 -16 -10z"/>
<path d="M4775 1300 c-4 -6 -10 -8 -15 -5 -4 3 -10 -1 -13 -8 -3 -7 6 -13 25
-14 16 -1 26 2 23 7 -4 6 -2 10 4 10 5 0 12 -6 14 -12 4 -10 6 -10 6 -1 1 17
-36 36 -44 23z"/>
<path d="M4860 1175 c0 -5 5 -17 10 -25 5 -8 10 -10 10 -5 0 6 -5 17 -10 25
-5 8 -10 11 -10 5z"/>
<path d="M4842 1077 c-6 -7 -9 -22 -8 -32 2 -11 -1 -29 -6 -40 -7 -15 -4 -13
10 5 16 18 23 21 34 13 10 -9 13 -6 15 14 1 17 -2 21 -7 13 -4 -7 -15 -10 -24
-7 -14 5 -15 11 -6 27 12 23 8 26 -8 7z"/>
<path d="M1040 1037 c-15 -8 -24 -20 -22 -31 2 -11 -2 -16 -9 -14 -16 5 -69
-54 -69 -76 0 -9 -4 -15 -9 -14 -5 2 -30 -24 -55 -57 -42 -53 -47 -64 -41 -95
15 -84 31 -116 80 -165 174 -175 466 -54 467 192 1 150 -122 273 -271 273 -25
0 -57 -6 -71 -13z"/>
<path d="M4871 954 c0 -11 3 -14 6 -6 3 7 2 16 -1 19 -3 4 -6 -2 -5 -13z"/>
<path d="M4880 839 c0 -5 5 -7 10 -4 6 3 10 8 10 11 0 2 -4 4 -10 4 -5 0 -10
-5 -10 -11z"/>
<path d="M4872 767 c2 -17 7 -23 17 -19 10 4 11 7 3 10 -7 2 -10 8 -7 12 3 5
1 11 -5 15 -6 4 -9 -4 -8 -18z"/>
</g>
</svg>
